<?xml version="1.0" encoding="utf-8"?>
<!-- Generator: Adobe Illustrator 16.0.0, SVG Export Plug-In . SVG Version: 6.00 Build 0)  -->
<!DOCTYPE svg PUBLIC "-//W3C//DTD SVG 1.1//EN" "http://www.w3.org/Graphics/SVG/1.1/DTD/svg11.dtd">
<svg version="1.1" id="Layer_1" xmlns="http://www.w3.org/2000/svg" xmlns:xlink="http://www.w3.org/1999/xlink" x="0px" y="0px"
	 width="105px" height="105px" viewBox="0 0 105 105" enable-background="new 0 0 105 105" xml:space="preserve">
<g>
	<path fill="#1B325D" d="M60.262,100.769c-11.349,0-21.681-4.645-28.377-12.771c-0.852-1.029-1.658-2.089-2.42-3.176
		c-0.654-0.93-0.431-2.217,0.499-2.877c0.941-0.656,2.218-0.432,2.879,0.503c0.699,0.997,1.439,1.974,2.223,2.918
		c5.964,7.234,15.175,11.472,25.453,11.274c10.08-0.067,19.174-4.232,24.941-11.423c3.686-4.599,6.957-10.366,10.291-18.152
		c4.838-11.284,2.914-25.154-4.49-32.27c-5.521-5.311-13.023-5.926-21.709-1.793c-0.965,0.458-1.863,0.923-2.705,1.357
		c-2.582,1.332-4.625,2.388-6.602,2.388c-1.982,0-4.025-1.058-6.614-2.392c-0.842-0.434-1.738-0.896-2.696-1.354
		c-7.234-3.445-13.792-3.574-18.961-0.364c-5.943,3.685-9.717,11.67-9.864,20.836c-0.016,1.137-0.851,2.137-2.099,2.029
		c-1.137-0.015-2.05-0.955-2.027-2.097c0.162-10.555,4.692-19.859,11.813-24.28c4.474-2.777,12.084-5.009,22.914,0.151
		c1,0.476,1.935,0.958,2.808,1.409c1.928,0.993,3.746,1.929,4.727,1.929c0.975,0,2.787-0.936,4.709-1.926
		c0.881-0.451,1.82-0.937,2.822-1.412c10.219-4.871,19.578-3.967,26.346,2.543c8.574,8.242,10.902,24.095,5.428,36.873
		c-2.195,5.118-5.713,12.672-10.869,19.106c-6.547,8.163-16.805,12.891-28.135,12.968C60.451,100.769,60.355,100.769,60.262,100.769
		z"/>
	<path fill="#1B325D" d="M60.311,93.899c-1.137,0-2.061-0.921-2.061-2.062c-0.006-1.139,0.92-2.066,2.061-2.066
		c8.068-0.015,15.344-3.32,19.959-9.07c2.982-3.726,5.531-8.216,8.248-14.555c1.602-3.724,2.311-7.896,2.053-12.056
		c-0.072-1.14,0.797-2.12,1.936-2.19c1.084-0.059,2.115,0.793,2.189,1.933c0.297,4.807-0.529,9.627-2.383,13.939
		c-2.871,6.697-5.592,11.482-8.822,15.51c-5.4,6.729-13.844,10.601-23.174,10.617H60.311z"/>
	<path fill="#1B325D" d="M60.244,36.748c-0.006,0-0.01,0-0.01,0c-1.143-0.007-2.063-0.937-2.057-2.077
		c0.049-8.752-2.406-19.873-9.455-24.839c-0.936-0.659-1.153-1.947-0.499-2.879c0.655-0.928,1.943-1.157,2.878-0.498
		c10.503,7.402,11.229,23.483,11.202,28.237C62.301,35.83,61.375,36.748,60.244,36.748z"/>
	<path fill="#1B325D" d="M72.607,23.85c-6.557,0-12.699-2.59-17.287-7.297c-0.709-0.73-0.783-1.867-0.172-2.685
		c4.4-5.843,11.115-9.352,18.418-9.62c6.852-0.258,13.395,2.357,18.199,7.283c0.709,0.73,0.781,1.869,0.168,2.684
		c-4.4,5.844-11.115,9.35-18.42,9.618C73.213,23.845,72.91,23.85,72.607,23.85z M59.621,14.933
		c3.623,3.103,8.166,4.788,12.986,4.788l0.758-0.016c5.438-0.198,10.477-2.563,14.092-6.555c-3.623-3.102-8.162-4.789-12.982-4.789
		l-0.758,0.014C68.279,8.577,63.24,10.939,59.621,14.933z"/>
	<path fill="#1B325D" d="M24.596,38.675h-9.643c-1.136,0-2.061-0.928-2.061-2.066c0-1.14,0.925-2.066,2.061-2.066h9.643
		c1.143,0,2.066,0.927,2.066,2.066C26.662,37.747,25.739,38.675,24.596,38.675z"/>
	<path fill="#1B325D" d="M4.678,76.931c-1.137,0-2.061-0.925-2.061-2.066V46.172c0-1.139,0.923-2.064,2.061-2.064
		c1.142,0,2.066,0.926,2.066,2.064v28.692C6.745,76.006,5.82,76.931,4.678,76.931z"/>
	<path fill="#1B325D" d="M54.863,85.769h-39.91C7.505,85.769,2.5,81.401,2.5,74.906c0-1.139,0.923-2.063,2.06-2.063
		c1.142,0,2.066,0.925,2.066,2.063c0,4.968,4.485,6.729,8.326,6.729h37.846V55.461H14.953C7.617,55.461,2.5,50.994,2.5,44.602
		c0-6.297,4.653-10.06,12.453-10.06c1.143,0,2.066,0.927,2.066,2.066c0,1.139-0.923,2.066-2.066,2.066
		c-3.796,0-8.326,1.024-8.326,5.927c0,4.968,4.485,6.728,8.326,6.728h39.91c1.143,0,2.066,0.928,2.066,2.067v30.306
		C56.93,84.842,56.006,85.769,54.863,85.769z"/>
	<path fill="#1B325D" d="M42.315,71.741c-1.135,0-2.06-0.928-2.06-2.067V54.152c0-1.14,0.925-2.067,2.06-2.067
		c1.144,0,2.067,0.928,2.067,2.067v15.521C44.382,70.813,43.459,71.741,42.315,71.741z"/>
	<path fill="#1B325D" d="M29.773,76.681c-1.137,0-2.064-0.925-2.064-2.063V54.152c0-1.14,0.927-2.067,2.064-2.067
		c1.142,0,2.067,0.928,2.067,2.067v20.465C31.84,75.756,30.915,76.681,29.773,76.681z"/>
	<path fill="#1B325D" d="M17.227,71.741c-1.137,0-2.061-0.928-2.061-2.067V54.152c0-1.14,0.923-2.067,2.061-2.067
		c1.142,0,2.066,0.928,2.066,2.067v15.521C19.293,70.813,18.369,71.741,17.227,71.741z"/>
</g>
</svg>
