<?xml version="1.0" encoding="utf-8"?>
<!-- Generator: Adobe Illustrator 16.0.0, SVG Export Plug-In . SVG Version: 6.00 Build 0)  -->
<!DOCTYPE svg PUBLIC "-//W3C//DTD SVG 1.1//EN" "http://www.w3.org/Graphics/SVG/1.1/DTD/svg11.dtd">
<svg version="1.1" id="Layer_1" xmlns="http://www.w3.org/2000/svg" xmlns:xlink="http://www.w3.org/1999/xlink" x="0px" y="0px"
	 width="105px" height="105px" viewBox="0 0 105 105" enable-background="new 0 0 105 105" xml:space="preserve">
<g>
	<polygon points="100.249,52.362 52.5,9.551 4.752,52.362 2.5,49.85 52.5,5.018 102.5,49.85 	"/>
	<path fill="#D73F27" d="M91.26,53.257L52.5,18.505L13.742,53.257v46.726H91.26V53.257z M64.299,96.605H40.707V66.274
		c0-5.577,4.533-10.111,10.11-10.111h3.367c5.577,0,10.115,4.534,10.115,10.111V96.605z M67.672,96.605V66.274
		c0-7.43-6.049-13.487-13.488-13.487h-3.367c-7.434,0-13.482,6.058-13.482,13.487v30.331H17.108V54.762L52.5,23.034l35.392,31.728
		v41.844H67.672z"/>
</g>
</svg>
